<mxfile host="app.diagrams.net" agent="Mozilla/5.0 (Macintosh; Intel Mac OS X 10.15; rv:134.0) Gecko/20100101 Firefox/134.0" version="26.0.6">
  <diagram name="Page-1" id="9f46799a-70d6-7492-0946-bef42562c5a5">
    <mxGraphModel dx="954" dy="505" grid="1" gridSize="10" guides="1" tooltips="1" connect="1" arrows="1" fold="1" page="1" pageScale="1" pageWidth="1100" pageHeight="850" background="none" math="0" shadow="0">
      <root>
        <mxCell id="0" />
        <mxCell id="1" parent="0" />
        <mxCell id="sNp8SA57BOHKnAyZNmcu-74" style="edgeStyle=orthogonalEdgeStyle;rounded=0;orthogonalLoop=1;jettySize=auto;html=1;exitX=1;exitY=0.5;exitDx=0;exitDy=0;fontFamily=Helvetica;fontSize=12;fontColor=default;entryX=1;entryY=0.5;entryDx=0;entryDy=0;" edge="1" parent="1" source="sNp8SA57BOHKnAyZNmcu-10" target="sNp8SA57BOHKnAyZNmcu-72">
          <mxGeometry relative="1" as="geometry">
            <mxPoint x="600" y="900" as="targetPoint" />
            <Array as="points">
              <mxPoint x="1260" y="150" />
              <mxPoint x="1260" y="660" />
              <mxPoint x="1920" y="660" />
              <mxPoint x="1920" y="390" />
            </Array>
          </mxGeometry>
        </mxCell>
        <mxCell id="sNp8SA57BOHKnAyZNmcu-30" value="PricingAPI.py" style="swimlane;whiteSpace=wrap;html=1;" vertex="1" parent="1">
          <mxGeometry x="870" y="40" width="200" height="200" as="geometry" />
        </mxCell>
        <mxCell id="sNp8SA57BOHKnAyZNmcu-9" value="class PricingAPIHelper" style="swimlane;fontStyle=0;childLayout=stackLayout;horizontal=1;startSize=30;horizontalStack=0;resizeParent=1;resizeParentMax=0;resizeLast=0;collapsible=1;marginBottom=0;whiteSpace=wrap;html=1;" vertex="1" parent="sNp8SA57BOHKnAyZNmcu-30">
          <mxGeometry x="15" y="40" width="170" height="110" as="geometry">
            <mxRectangle x="650" y="320" width="160" height="30" as="alternateBounds" />
          </mxGeometry>
        </mxCell>
        <mxCell id="sNp8SA57BOHKnAyZNmcu-10" value="&lt;div&gt;&lt;font style=&quot;font-size: 9px;&quot;&gt;__init__(self) // Pulls pricing data from ComEd (Chicago???) and makes it JSON&lt;br&gt;&lt;/font&gt;&lt;/div&gt;" style="text;strokeColor=none;fillColor=none;align=left;verticalAlign=middle;spacingLeft=4;spacingRight=4;overflow=hidden;points=[[0,0.5],[1,0.5]];portConstraint=eastwest;rotatable=0;whiteSpace=wrap;html=1;" vertex="1" parent="sNp8SA57BOHKnAyZNmcu-9">
          <mxGeometry y="30" width="170" height="80" as="geometry" />
        </mxCell>
        <mxCell id="sNp8SA57BOHKnAyZNmcu-31" value="databases.py" style="swimlane;whiteSpace=wrap;html=1;" vertex="1" parent="1">
          <mxGeometry x="50" y="40" width="540" height="700" as="geometry" />
        </mxCell>
        <mxCell id="sNp8SA57BOHKnAyZNmcu-34" value="class Data" style="swimlane;fontStyle=0;childLayout=stackLayout;horizontal=1;startSize=30;horizontalStack=0;resizeParent=1;resizeParentMax=0;resizeLast=0;collapsible=1;marginBottom=0;whiteSpace=wrap;html=1;" vertex="1" parent="sNp8SA57BOHKnAyZNmcu-31">
          <mxGeometry x="10" y="30" width="180" height="200" as="geometry" />
        </mxCell>
        <mxCell id="sNp8SA57BOHKnAyZNmcu-35" value="&lt;font style=&quot;font-size: 9px;&quot;&gt;__init__(self)&lt;/font&gt;" style="text;strokeColor=none;fillColor=none;align=left;verticalAlign=middle;spacingLeft=4;spacingRight=4;overflow=hidden;points=[[0,0.5],[1,0.5]];portConstraint=eastwest;rotatable=0;whiteSpace=wrap;html=1;" vertex="1" parent="sNp8SA57BOHKnAyZNmcu-34">
          <mxGeometry y="30" width="180" height="30" as="geometry" />
        </mxCell>
        <mxCell id="sNp8SA57BOHKnAyZNmcu-50" style="edgeStyle=orthogonalEdgeStyle;rounded=0;orthogonalLoop=1;jettySize=auto;html=1;exitX=1;exitY=0.5;exitDx=0;exitDy=0;entryX=1;entryY=0.5;entryDx=0;entryDy=0;" edge="1" parent="sNp8SA57BOHKnAyZNmcu-34" source="sNp8SA57BOHKnAyZNmcu-36" target="sNp8SA57BOHKnAyZNmcu-46">
          <mxGeometry relative="1" as="geometry" />
        </mxCell>
        <mxCell id="sNp8SA57BOHKnAyZNmcu-36" value="&lt;font style=&quot;font-size: 8px;&quot;&gt;datePrice(self) // Gets arrays of time price and dates retrieved from PricingAPI&lt;/font&gt;" style="text;strokeColor=none;fillColor=none;align=left;verticalAlign=middle;spacingLeft=4;spacingRight=4;overflow=hidden;points=[[0,0.5],[1,0.5]];portConstraint=eastwest;rotatable=0;whiteSpace=wrap;html=1;" vertex="1" parent="sNp8SA57BOHKnAyZNmcu-34">
          <mxGeometry y="60" width="180" height="40" as="geometry" />
        </mxCell>
        <mxCell id="sNp8SA57BOHKnAyZNmcu-46" value="&lt;div&gt;&lt;font style=&quot;font-size: 8px;&quot;&gt;EnergyStats(self) // Creates a MySQL insert query for putting datePrice results in DB&lt;/font&gt;&lt;/div&gt;&lt;br&gt;&lt;div&gt;&lt;br&gt;&lt;/div&gt;&lt;div&gt;&lt;br&gt;&lt;/div&gt;" style="text;strokeColor=none;fillColor=none;align=left;verticalAlign=middle;spacingLeft=4;spacingRight=4;overflow=hidden;points=[[0,0.5],[1,0.5]];portConstraint=eastwest;rotatable=0;whiteSpace=wrap;html=1;" vertex="1" parent="sNp8SA57BOHKnAyZNmcu-34">
          <mxGeometry y="100" width="180" height="40" as="geometry" />
        </mxCell>
        <mxCell id="sNp8SA57BOHKnAyZNmcu-42" value="&lt;font style=&quot;font-size: 8px;&quot;&gt;login(self, user, pw) and createUser(user, pw) both appear to be for some sort of user auth that may or may not be used&lt;/font&gt;" style="text;strokeColor=none;fillColor=none;align=left;verticalAlign=middle;spacingLeft=4;spacingRight=4;overflow=hidden;points=[[0,0.5],[1,0.5]];portConstraint=eastwest;rotatable=0;whiteSpace=wrap;html=1;fontSize=9;" vertex="1" parent="sNp8SA57BOHKnAyZNmcu-34">
          <mxGeometry y="140" width="180" height="60" as="geometry" />
        </mxCell>
        <mxCell id="sNp8SA57BOHKnAyZNmcu-51" value="class AppData" style="swimlane;fontStyle=0;childLayout=stackLayout;horizontal=1;startSize=30;horizontalStack=0;resizeParent=1;resizeParentMax=0;resizeLast=0;collapsible=1;marginBottom=0;whiteSpace=wrap;html=1;" vertex="1" parent="sNp8SA57BOHKnAyZNmcu-31">
          <mxGeometry x="10" y="240" width="180" height="350" as="geometry" />
        </mxCell>
        <mxCell id="sNp8SA57BOHKnAyZNmcu-54" value="&lt;font style=&quot;font-size: 9px;&quot;&gt;newAppliance(self, userEmail, policy) // Makes a SQL insertion to table Appliance with various attributed of an appliance, including IP, something called &quot;Policy&quot; (?), etc.&lt;/font&gt;" style="text;strokeColor=none;fillColor=none;align=left;verticalAlign=middle;spacingLeft=4;spacingRight=4;overflow=hidden;points=[[0,0.5],[1,0.5]];portConstraint=eastwest;rotatable=0;whiteSpace=wrap;html=1;" vertex="1" parent="sNp8SA57BOHKnAyZNmcu-51">
          <mxGeometry y="30" width="180" height="80" as="geometry" />
        </mxCell>
        <mxCell id="sNp8SA57BOHKnAyZNmcu-56" value="&lt;font&gt;getAppliances(userEmail) // makes an SQL query on provided user email, returns all matching from table Appliance, returns them in an array&lt;font&gt;&lt;br&gt;&lt;/font&gt;&lt;/font&gt;" style="text;strokeColor=none;fillColor=none;align=left;verticalAlign=middle;spacingLeft=4;spacingRight=4;overflow=hidden;points=[[0,0.5],[1,0.5]];portConstraint=eastwest;rotatable=0;whiteSpace=wrap;html=1;fontSize=9;" vertex="1" parent="sNp8SA57BOHKnAyZNmcu-51">
          <mxGeometry y="110" width="180" height="60" as="geometry" />
        </mxCell>
        <mxCell id="sNp8SA57BOHKnAyZNmcu-86" value="&lt;div&gt;&lt;font&gt;updateAppState(appName, state) // updates appliance &quot;state&quot; property via SQL update statement&lt;/font&gt;&lt;/div&gt;" style="text;strokeColor=none;fillColor=none;align=left;verticalAlign=middle;spacingLeft=4;spacingRight=4;overflow=hidden;points=[[0,0.5],[1,0.5]];portConstraint=eastwest;rotatable=0;whiteSpace=wrap;html=1;fontSize=9;" vertex="1" parent="sNp8SA57BOHKnAyZNmcu-51">
          <mxGeometry y="170" width="180" height="60" as="geometry" />
        </mxCell>
        <mxCell id="sNp8SA57BOHKnAyZNmcu-87" value="updateAppADR(appName, adr_enabled) // updates boolean ADR on/off using SQL update statement" style="text;strokeColor=none;fillColor=none;align=left;verticalAlign=middle;spacingLeft=4;spacingRight=4;overflow=hidden;points=[[0,0.5],[1,0.5]];portConstraint=eastwest;rotatable=0;whiteSpace=wrap;html=1;fontSize=9;" vertex="1" parent="sNp8SA57BOHKnAyZNmcu-51">
          <mxGeometry y="230" width="180" height="60" as="geometry" />
        </mxCell>
        <mxCell id="sNp8SA57BOHKnAyZNmcu-88" style="text;strokeColor=none;fillColor=none;align=left;verticalAlign=middle;spacingLeft=4;spacingRight=4;overflow=hidden;points=[[0,0.5],[1,0.5]];portConstraint=eastwest;rotatable=0;whiteSpace=wrap;html=1;fontSize=9;" vertex="1" parent="sNp8SA57BOHKnAyZNmcu-51">
          <mxGeometry y="290" width="180" height="60" as="geometry" />
        </mxCell>
        <mxCell id="sNp8SA57BOHKnAyZNmcu-89" value="class FridgeData" style="swimlane;fontStyle=0;childLayout=stackLayout;horizontal=1;startSize=30;horizontalStack=0;resizeParent=1;resizeParentMax=0;resizeLast=0;collapsible=1;marginBottom=0;whiteSpace=wrap;html=1;" vertex="1" parent="sNp8SA57BOHKnAyZNmcu-31">
          <mxGeometry x="220" y="240" width="180" height="360" as="geometry" />
        </mxCell>
        <mxCell id="sNp8SA57BOHKnAyZNmcu-90" value="&lt;font style=&quot;font-size: 9px;&quot;&gt;newFridge(self, userEmail, policy) // Makes a SQL insertion to table Fridge with various attributed of an appliance, including IP, something called &quot;Policy&quot; (?), etc.&lt;/font&gt;" style="text;strokeColor=none;fillColor=none;align=left;verticalAlign=middle;spacingLeft=4;spacingRight=4;overflow=hidden;points=[[0,0.5],[1,0.5]];portConstraint=eastwest;rotatable=0;whiteSpace=wrap;html=1;" vertex="1" parent="sNp8SA57BOHKnAyZNmcu-89">
          <mxGeometry y="30" width="180" height="90" as="geometry" />
        </mxCell>
        <mxCell id="sNp8SA57BOHKnAyZNmcu-91" value="&lt;font&gt;getFridge(userEmail) // makes an SQL query on provided user email, returns all matching from table Fridge, returns them in an array&lt;br&gt;&lt;/font&gt;" style="text;strokeColor=none;fillColor=none;align=left;verticalAlign=middle;spacingLeft=4;spacingRight=4;overflow=hidden;points=[[0,0.5],[1,0.5]];portConstraint=eastwest;rotatable=0;whiteSpace=wrap;html=1;fontSize=9;" vertex="1" parent="sNp8SA57BOHKnAyZNmcu-89">
          <mxGeometry y="120" width="180" height="60" as="geometry" />
        </mxCell>
        <mxCell id="sNp8SA57BOHKnAyZNmcu-92" value="&lt;div&gt;&lt;font&gt;updateFridgeState(appName, state) // updates appliance &quot;state&quot; property via SQL update statement&lt;/font&gt;&lt;/div&gt;" style="text;strokeColor=none;fillColor=none;align=left;verticalAlign=middle;spacingLeft=4;spacingRight=4;overflow=hidden;points=[[0,0.5],[1,0.5]];portConstraint=eastwest;rotatable=0;whiteSpace=wrap;html=1;fontSize=9;" vertex="1" parent="sNp8SA57BOHKnAyZNmcu-89">
          <mxGeometry y="180" width="180" height="60" as="geometry" />
        </mxCell>
        <mxCell id="sNp8SA57BOHKnAyZNmcu-93" value="updateFridgeADR(appName, adr_enabled) // updates boolean ADR on/off using SQL update statement" style="text;strokeColor=none;fillColor=none;align=left;verticalAlign=middle;spacingLeft=4;spacingRight=4;overflow=hidden;points=[[0,0.5],[1,0.5]];portConstraint=eastwest;rotatable=0;whiteSpace=wrap;html=1;fontSize=9;" vertex="1" parent="sNp8SA57BOHKnAyZNmcu-89">
          <mxGeometry y="240" width="180" height="60" as="geometry" />
        </mxCell>
        <mxCell id="sNp8SA57BOHKnAyZNmcu-94" value="updateFridgeTemp(app_name, temp) //Updates current_temp property of an entry in table Fridge" style="text;strokeColor=none;fillColor=none;align=left;verticalAlign=middle;spacingLeft=4;spacingRight=4;overflow=hidden;points=[[0,0.5],[1,0.5]];portConstraint=eastwest;rotatable=0;whiteSpace=wrap;html=1;fontSize=9;" vertex="1" parent="sNp8SA57BOHKnAyZNmcu-89">
          <mxGeometry y="300" width="180" height="60" as="geometry" />
        </mxCell>
        <mxCell id="sNp8SA57BOHKnAyZNmcu-96" value="&lt;font style=&quot;font-size: 9px;&quot;&gt;sendQuery(queries) // Connects to MySQLdb and executes provided list of SQL statements&lt;/font&gt;" style="rounded=0;whiteSpace=wrap;html=1;align=left;verticalAlign=middle;spacingLeft=4;spacingRight=4;fontFamily=Helvetica;fontSize=12;fontColor=default;fillColor=none;gradientColor=none;" vertex="1" parent="sNp8SA57BOHKnAyZNmcu-31">
          <mxGeometry x="320" y="120" width="120" height="60" as="geometry" />
        </mxCell>
        <mxCell id="sNp8SA57BOHKnAyZNmcu-57" value="ApplianceClass.py" style="swimlane;whiteSpace=wrap;html=1;" vertex="1" parent="1">
          <mxGeometry x="1440" y="20" width="510" height="530" as="geometry" />
        </mxCell>
        <mxCell id="sNp8SA57BOHKnAyZNmcu-58" value="class Appliance" style="swimlane;fontStyle=0;childLayout=stackLayout;horizontal=1;startSize=30;horizontalStack=0;resizeParent=1;resizeParentMax=0;resizeLast=0;collapsible=1;marginBottom=0;whiteSpace=wrap;html=1;" vertex="1" parent="sNp8SA57BOHKnAyZNmcu-57">
          <mxGeometry x="270" y="40" width="180" height="420" as="geometry" />
        </mxCell>
        <mxCell id="sNp8SA57BOHKnAyZNmcu-61" value="&lt;div&gt;&lt;font style=&quot;font-size: 8px;&quot;&gt;&lt;b&gt;&lt;font&gt;Member Vars:&lt;/font&gt;&lt;/b&gt;&lt;/font&gt;&lt;/div&gt;&lt;font style=&quot;font-size: 8px;&quot;&gt;&lt;br&gt;&lt;/font&gt;&lt;div&gt;&lt;font style=&quot;font-size: 8px;&quot;&gt;string applianceName&lt;/font&gt;&lt;/div&gt;&lt;div&gt;&lt;font style=&quot;font-size: 8px;&quot;&gt;int priceThreshold&lt;/font&gt;&lt;/div&gt;&lt;div&gt;&lt;font style=&quot;font-size: 8px;&quot;&gt;array userOffTime&lt;/font&gt;&lt;/div&gt;&lt;div&gt;&lt;font style=&quot;font-size: 8px;&quot;&gt;array userOnTime&lt;/font&gt;&lt;/div&gt;&lt;div&gt;&lt;font style=&quot;font-size: 8px;&quot;&gt;array adrOffTimes&lt;/font&gt;&lt;/div&gt;&lt;div&gt;&lt;font style=&quot;font-size: 8px;&quot;&gt;string currState&lt;/font&gt;&lt;/div&gt;&lt;div&gt;&lt;font style=&quot;font-size: 8px;&quot;&gt;string prevState&lt;/font&gt;&lt;/div&gt;&lt;div&gt;&lt;font style=&quot;font-size: 8px;&quot;&gt;bool adrEnabled&lt;/font&gt;&lt;/div&gt;&lt;div&gt;&lt;font style=&quot;font-size: 8px;&quot;&gt;string ADR&lt;/font&gt;&lt;/div&gt;&lt;div&gt;&lt;font style=&quot;font-size: 8px;&quot;&gt;bool done&lt;br&gt;&lt;/font&gt;&lt;/div&gt;&lt;div&gt;&lt;font style=&quot;font-size: 8px;&quot;&gt;&lt;br&gt;&lt;/font&gt;&lt;/div&gt;&lt;div&gt;&lt;font style=&quot;font-size: 8px;&quot;&gt;&lt;b&gt;Methods:&lt;br&gt;&lt;/b&gt;&lt;/font&gt;&lt;/div&gt;" style="text;strokeColor=none;fillColor=none;align=left;verticalAlign=middle;spacingLeft=4;spacingRight=4;overflow=hidden;points=[[0,0.5],[1,0.5]];portConstraint=eastwest;rotatable=0;whiteSpace=wrap;html=1;" vertex="1" parent="sNp8SA57BOHKnAyZNmcu-58">
          <mxGeometry y="30" width="180" height="210" as="geometry" />
        </mxCell>
        <mxCell id="sNp8SA57BOHKnAyZNmcu-63" value="&lt;div&gt;__init__() // Converts user spec&#39;d time to 24-hour format, calls self.ADR()&lt;br&gt;&lt;/div&gt;" style="text;strokeColor=none;fillColor=none;align=left;verticalAlign=middle;spacingLeft=4;spacingRight=4;overflow=hidden;points=[[0,0.5],[1,0.5]];portConstraint=eastwest;rotatable=0;whiteSpace=wrap;html=1;fontSize=9;" vertex="1" parent="sNp8SA57BOHKnAyZNmcu-58">
          <mxGeometry y="240" width="180" height="60" as="geometry" />
        </mxCell>
        <mxCell id="sNp8SA57BOHKnAyZNmcu-72" value="ADR(self) // Calls pricing API helper, finds 10 highest peak times, sets adrOffTimes to those peaks" style="text;strokeColor=none;fillColor=none;align=left;verticalAlign=middle;spacingLeft=4;spacingRight=4;overflow=hidden;points=[[0,0.5],[1,0.5]];portConstraint=eastwest;rotatable=0;whiteSpace=wrap;html=1;fontSize=9;" vertex="1" parent="sNp8SA57BOHKnAyZNmcu-58">
          <mxGeometry y="300" width="180" height="60" as="geometry" />
        </mxCell>
        <mxCell id="sNp8SA57BOHKnAyZNmcu-75" value="async def switch(self, on_off) // Uses Python Kasa library to send on/off signals to the smart switch" style="text;strokeColor=none;fillColor=none;align=left;verticalAlign=middle;spacingLeft=4;spacingRight=4;overflow=hidden;points=[[0,0.5],[1,0.5]];portConstraint=eastwest;rotatable=0;whiteSpace=wrap;html=1;fontSize=9;" vertex="1" parent="sNp8SA57BOHKnAyZNmcu-58">
          <mxGeometry y="360" width="180" height="60" as="geometry" />
        </mxCell>
        <mxCell id="sNp8SA57BOHKnAyZNmcu-76" style="text;strokeColor=none;fillColor=none;align=left;verticalAlign=middle;spacingLeft=4;spacingRight=4;overflow=hidden;points=[[0,0.5],[1,0.5]];portConstraint=eastwest;rotatable=0;whiteSpace=wrap;html=1;fontSize=9;" vertex="1" parent="sNp8SA57BOHKnAyZNmcu-58">
          <mxGeometry y="420" width="180" as="geometry" />
        </mxCell>
        <mxCell id="sNp8SA57BOHKnAyZNmcu-77" value="class Fridge" style="swimlane;fontStyle=0;childLayout=stackLayout;horizontal=1;startSize=30;horizontalStack=0;resizeParent=1;resizeParentMax=0;resizeLast=0;collapsible=1;marginBottom=0;whiteSpace=wrap;html=1;" vertex="1" parent="sNp8SA57BOHKnAyZNmcu-57">
          <mxGeometry x="20" y="40" width="180" height="420" as="geometry" />
        </mxCell>
        <mxCell id="sNp8SA57BOHKnAyZNmcu-78" value="&lt;div&gt;&lt;font style=&quot;font-size: 8px;&quot;&gt;&lt;b&gt;&lt;font&gt;Member Vars:&lt;/font&gt;&lt;/b&gt;&lt;/font&gt;&lt;/div&gt;&lt;font style=&quot;font-size: 8px;&quot;&gt;string applianceName&lt;/font&gt;&lt;br&gt;&lt;div&gt;&lt;font style=&quot;font-size: 8px;&quot;&gt;int priceThreshold&lt;/font&gt;&lt;/div&gt;&lt;div&gt;&lt;font style=&quot;font-size: 8px;&quot;&gt;array adrOffTimes&lt;/font&gt;&lt;/div&gt;&lt;div&gt;&lt;font style=&quot;font-size: 8px;&quot;&gt;string currState&lt;/font&gt;&lt;/div&gt;&lt;div&gt;&lt;font style=&quot;font-size: 8px;&quot;&gt;bool adrEnabled&lt;/font&gt;&lt;/div&gt;&lt;div&gt;&lt;font style=&quot;font-size: 8px;&quot;&gt;int desiredTemp&lt;br&gt;&lt;/font&gt;&lt;/div&gt;&lt;div&gt;&lt;font style=&quot;font-size: 8px;&quot;&gt;int highBoundary&lt;/font&gt;&lt;/div&gt;&lt;div&gt;&lt;font style=&quot;font-size: 8px;&quot;&gt;int lowBoundary&lt;/font&gt;&lt;/div&gt;&lt;div&gt;&lt;font style=&quot;font-size: 8px;&quot;&gt;deadBand&lt;/font&gt;&lt;/div&gt;&lt;div&gt;&lt;font style=&quot;font-size: 8px;&quot;&gt;minsBefore&lt;/font&gt;&lt;/div&gt;&lt;div&gt;&lt;font style=&quot;font-size: 8px;&quot;&gt;&lt;br&gt;&lt;/font&gt;&lt;/div&gt;&lt;div&gt;&lt;font style=&quot;font-size: 8px;&quot;&gt;&lt;br&gt;&lt;/font&gt;&lt;/div&gt;&lt;div&gt;&lt;font style=&quot;font-size: 8px;&quot;&gt;&lt;b&gt;Methods:&lt;br&gt;&lt;/b&gt;&lt;/font&gt;&lt;/div&gt;" style="text;strokeColor=none;fillColor=none;align=left;verticalAlign=middle;spacingLeft=4;spacingRight=4;overflow=hidden;points=[[0,0.5],[1,0.5]];portConstraint=eastwest;rotatable=0;whiteSpace=wrap;html=1;" vertex="1" parent="sNp8SA57BOHKnAyZNmcu-77">
          <mxGeometry y="30" width="180" height="210" as="geometry" />
        </mxCell>
        <mxCell id="sNp8SA57BOHKnAyZNmcu-79" value="&lt;div&gt;__init__() // Calls self.ADR()&lt;br&gt;&lt;/div&gt;" style="text;strokeColor=none;fillColor=none;align=left;verticalAlign=middle;spacingLeft=4;spacingRight=4;overflow=hidden;points=[[0,0.5],[1,0.5]];portConstraint=eastwest;rotatable=0;whiteSpace=wrap;html=1;fontSize=9;" vertex="1" parent="sNp8SA57BOHKnAyZNmcu-77">
          <mxGeometry y="240" width="180" height="60" as="geometry" />
        </mxCell>
        <mxCell id="sNp8SA57BOHKnAyZNmcu-80" value="ADR(self) // Calls pricing API helper, finds 10 highest peak times, sets adrOffTimes to those peaks" style="text;strokeColor=none;fillColor=none;align=left;verticalAlign=middle;spacingLeft=4;spacingRight=4;overflow=hidden;points=[[0,0.5],[1,0.5]];portConstraint=eastwest;rotatable=0;whiteSpace=wrap;html=1;fontSize=9;" vertex="1" parent="sNp8SA57BOHKnAyZNmcu-77">
          <mxGeometry y="300" width="180" height="60" as="geometry" />
        </mxCell>
        <mxCell id="sNp8SA57BOHKnAyZNmcu-81" value="def fridge_control(self, on_off) // Turns fridge on/off by using the RPi GPIO library to signal that relay board wired to the Pi" style="text;strokeColor=none;fillColor=none;align=left;verticalAlign=middle;spacingLeft=4;spacingRight=4;overflow=hidden;points=[[0,0.5],[1,0.5]];portConstraint=eastwest;rotatable=0;whiteSpace=wrap;html=1;fontSize=9;" vertex="1" parent="sNp8SA57BOHKnAyZNmcu-77">
          <mxGeometry y="360" width="180" height="60" as="geometry" />
        </mxCell>
        <mxCell id="sNp8SA57BOHKnAyZNmcu-82" style="text;strokeColor=none;fillColor=none;align=left;verticalAlign=middle;spacingLeft=4;spacingRight=4;overflow=hidden;points=[[0,0.5],[1,0.5]];portConstraint=eastwest;rotatable=0;whiteSpace=wrap;html=1;fontSize=9;" vertex="1" parent="sNp8SA57BOHKnAyZNmcu-77">
          <mxGeometry y="420" width="180" as="geometry" />
        </mxCell>
        <mxCell id="sNp8SA57BOHKnAyZNmcu-83" style="edgeStyle=orthogonalEdgeStyle;rounded=0;orthogonalLoop=1;jettySize=auto;html=1;exitX=1;exitY=0.5;exitDx=0;exitDy=0;entryX=1;entryY=0.5;entryDx=0;entryDy=0;fontFamily=Helvetica;fontSize=12;fontColor=default;" edge="1" parent="1" source="sNp8SA57BOHKnAyZNmcu-10" target="sNp8SA57BOHKnAyZNmcu-80">
          <mxGeometry relative="1" as="geometry">
            <Array as="points">
              <mxPoint x="1260" y="150" />
              <mxPoint x="1260" y="660" />
              <mxPoint x="1680" y="660" />
              <mxPoint x="1680" y="390" />
            </Array>
          </mxGeometry>
        </mxCell>
        <mxCell id="sNp8SA57BOHKnAyZNmcu-85" style="edgeStyle=orthogonalEdgeStyle;rounded=0;orthogonalLoop=1;jettySize=auto;html=1;exitX=0;exitY=0.5;exitDx=0;exitDy=0;entryX=1;entryY=0.5;entryDx=0;entryDy=0;fontFamily=Helvetica;fontSize=12;fontColor=default;" edge="1" parent="1" source="sNp8SA57BOHKnAyZNmcu-10" target="sNp8SA57BOHKnAyZNmcu-35">
          <mxGeometry relative="1" as="geometry" />
        </mxCell>
      </root>
    </mxGraphModel>
  </diagram>
</mxfile>
